<svg width="120" height="180" viewBox="0 0 16 24" xmlns="http://www.w3.org/2000/svg" shape-rendering="crispEdges">
  <!-- Guybrush in 16-pixel art style -->
  
  <!-- Grid lines for reference, remove in final version -->
  <!-- <g stroke="#ddd" stroke-width="0.05">
    <path d="M0 0 V24 M1 0 V24 M2 0 V24 M3 0 V24 M4 0 V24 M5 0 V24 M6 0 V24 M7 0 V24 M8 0 V24 M9 0 V24 M10 0 V24 M11 0 V24 M12 0 V24 M13 0 V24 M14 0 V24 M15 0 V24 M16 0 V24" />
    <path d="M0 0 H16 M0 1 H16 M0 2 H16 M0 3 H16 M0 4 H16 M0 5 H16 M0 6 H16 M0 7 H16 M0 8 H16 M0 9 H16 M0 10 H16 M0 11 H16 M0 12 H16 M0 13 H16 M0 14 H16 M0 15 H16 M0 16 H16 M0 17 H16 M0 18 H16 M0 19 H16 M0 20 H16 M0 21 H16 M0 22 H16 M0 23 H16 M0 24 H16" />
  </g> -->
  
  <!-- Hair (orange/yellow) -->
  <rect x="5" y="1" width="6" height="3" fill="#f7b239" />
  <rect x="4" y="2" width="1" height="2" fill="#f7b239" />
  <rect x="11" y="2" width="1" height="2" fill="#f7b239" />
  
  <!-- Face (peach) -->
  <rect x="5" y="4" width="6" height="3" fill="#ffccaa" />
  <rect x="6" y="7" width="4" height="1" fill="#ffccaa" />
  
  <!-- Eyes (blue) -->
  <rect x="6" y="5" width="1" height="1" fill="#000000" />
  <rect x="9" y="5" width="1" height="1" fill="#000000" />
  
  <!-- Mouth -->
  <rect x="7" y="6" width="2" height="1" fill="#dd6644" />
  
  <!-- Shirt (white) -->
  <rect x="5" y="8" width="6" height="5" fill="#ffffff" />
  <rect x="3" y="9" width="2" height="3" fill="#ffffff" /> <!-- left arm -->
  <rect x="11" y="9" width="2" height="3" fill="#ffffff" /> <!-- right arm -->
  
  <!-- Blue stripes on shirt -->
  <rect x="5" y="9" width="6" height="1" fill="#6699dd" />
  <rect x="5" y="11" width="6" height="1" fill="#6699dd" />
  
  <!-- Hands -->
  <rect x="2" y="9" width="1" height="3" fill="#ffccaa" />
  <rect x="13" y="9" width="1" height="3" fill="#ffccaa" />
  
  <!-- Pants (gray/blue) -->
  <rect x="5" y="13" width="6" height="6" fill="#8899aa" />
  <rect x="5" y="19" width="2" height="3" fill="#8899aa" /> <!-- left leg -->
  <rect x="9" y="19" width="2" height="3" fill="#8899aa" /> <!-- right leg -->
  
  <!-- Shoes (brown) -->
  <rect x="4" y="22" width="3" height="1" fill="#663311" />
  <rect x="9" y="22" width="3" height="1" fill="#663311" />
</svg> 