<?xml version="1.0" encoding="UTF-8"?>
<svg width="24px" height="24px" viewBox="0 0 24 24" version="1.1" xmlns="http://www.w3.org/2000/svg">
    <g stroke="none" stroke-width="1" fill="none" fill-rule="evenodd">
        <path d="M12,2 C6.48,2 2,6.48 2,12 C2,17.52 6.48,22 12,22 C17.52,22 22,17.52 22,12 C22,6.48 17.52,2 12,2 Z M12,17 C11.45,17 11,16.55 11,16 C11,15.45 11.45,15 12,15 C12.55,15 13,15.45 13,16 C13,16.55 12.55,17 12,17 Z M13,13 L11,13 L11,7 L13,7 L13,13 Z" fill="#FFFFFF"/>
    </g>
</svg> 