<svg width="96" height="96" viewBox="0 0 16 16" xmlns="http://www.w3.org/2000/svg" shape-rendering="crispEdges">
  <!-- 16-bit style mute icon -->
  
  <!-- Speaker base -->
  <rect x="3" y="6" width="3" height="4" fill="#FFFFFF" />
  
  <!-- Speaker cone -->
  <rect x="6" y="4" width="1" height="8" fill="#FFFFFF" />
  <rect x="7" y="3" width="1" height="10" fill="#FFFFFF" />
  <rect x="8" y="2" width="1" height="12" fill="#FFFFFF" />
  
  <!-- X to indicate mute - diagonal line 1 -->
  <rect x="10" y="2" width="1" height="1" fill="#FFFFFF" />
  <rect x="11" y="3" width="1" height="1" fill="#FFFFFF" />
  <rect x="12" y="4" width="1" height="1" fill="#FFFFFF" />
  <rect x="13" y="5" width="1" height="1" fill="#FFFFFF" />
  <rect x="12" y="6" width="1" height="1" fill="#FFFFFF" />
  <rect x="11" y="7" width="1" height="1" fill="#FFFFFF" />
  <rect x="10" y="8" width="1" height="1" fill="#FFFFFF" />
  <rect x="11" y="9" width="1" height="1" fill="#FFFFFF" />
  <rect x="12" y="10" width="1" height="1" fill="#FFFFFF" />
  <rect x="13" y="11" width="1" height="1" fill="#FFFFFF" />
  
  <!-- X to indicate mute - diagonal line 2 -->
  <rect x="10" y="11" width="1" height="1" fill="#FFFFFF" />
  <rect x="11" y="10" width="1" height="1" fill="#FFFFFF" />
  <rect x="12" y="9" width="1" height="1" fill="#FFFFFF" />
  <rect x="13" y="8" width="1" height="1" fill="#FFFFFF" />
  <rect x="12" y="7" width="1" height="1" fill="#FFFFFF" />
  <rect x="11" y="6" width="1" height="1" fill="#FFFFFF" />
  <rect x="10" y="5" width="1" height="1" fill="#FFFFFF" />
  <rect x="11" y="4" width="1" height="1" fill="#FFFFFF" />
  <rect x="12" y="3" width="1" height="1" fill="#FFFFFF" />
  <rect x="13" y="2" width="1" height="1" fill="#FFFFFF" />
</svg> 