<svg width="320" height="200" viewBox="0 0 80 50" xmlns="http://www.w3.org/2000/svg" shape-rendering="crispEdges">
  <!-- Pixel art night sky background -->
  
  <!-- Dark sky gradient (using rectangles for pixel art) -->
  <rect x="0" y="0" width="80" height="10" fill="#001133" />
  <rect x="0" y="10" width="80" height="10" fill="#001a4d" />
  <rect x="0" y="20" width="80" height="15" fill="#002266" />
  <rect x="0" y="35" width="80" height="15" fill="#003380" />
  
  <!-- Stars -->
  <rect x="5" y="3" width="1" height="1" fill="#ffffff" />
  <rect x="12" y="5" width="1" height="1" fill="#ffffff" />
  <rect x="20" y="2" width="1" height="1" fill="#ffffff" />
  <rect x="25" y="7" width="1" height="1" fill="#ffffff" />
  <rect x="32" y="4" width="1" height="1" fill="#ffffff" />
  <rect x="40" y="6" width="1" height="1" fill="#ffffff" />
  <rect x="48" y="2" width="1" height="1" fill="#ffffff" />
  <rect x="55" y="8" width="1" height="1" fill="#ffffff" />
  <rect x="62" y="5" width="1" height="1" fill="#ffffff" />
  <rect x="70" y="3" width="1" height="1" fill="#ffffff" />
  <rect x="75" y="7" width="1" height="1" fill="#ffffff" />
  <rect x="10" y="12" width="1" height="1" fill="#ffffff" />
  <rect x="18" y="15" width="1" height="1" fill="#ffffff" />
  <rect x="34" y="13" width="1" height="1" fill="#ffffff" />
  <rect x="52" y="14" width="1" height="1" fill="#ffffff" />
  <rect x="67" y="17" width="1" height="1" fill="#ffffff" />
  
  <!-- Moon (simple pixel circle) -->
  <rect x="65" y="10" width="4" height="4" fill="#aaaaff" />
  <rect x="64" y="11" width="1" height="2" fill="#aaaaff" />
  <rect x="69" y="11" width="1" height="2" fill="#aaaaff" />
  <rect x="65" y="9" width="2" height="1" fill="#aaaaff" />
  <rect x="65" y="14" width="2" height="1" fill="#aaaaff" />
  
  <!-- Distant mountains/islands silhouette -->
  <rect x="0" y="35" width="80" height="2" fill="#000000" />
  <rect x="5" y="34" width="10" height="1" fill="#000000" />
  <rect x="8" y="33" width="4" height="1" fill="#000000" />
  <rect x="25" y="34" width="15" height="1" fill="#000000" />
  <rect x="30" y="33" width="5" height="1" fill="#000000" />
  <rect x="50" y="34" width="12" height="1" fill="#000000" />
  <rect x="55" y="33" width="2" height="1" fill="#000000" />
  
  <!-- Foreground trees silhouette -->
  <rect x="2" y="31" width="2" height="4" fill="#000000" />
  <rect x="0" y="28" width="6" height="3" fill="#000000" />
  <rect x="15" y="30" width="3" height="5" fill="#000000" />
  <rect x="13" y="27" width="7" height="3" fill="#000000" />
  <rect x="45" y="29" width="4" height="6" fill="#000000" />
  <rect x="43" y="25" width="8" height="4" fill="#000000" />
  <rect x="65" y="32" width="3" height="3" fill="#000000" />
  <rect x="63" y="29" width="7" height="3" fill="#000000" />
  <rect x="75" y="31" width="5" height="4" fill="#000000" />
  <rect x="74" y="28" width="6" height="3" fill="#000000" />
</svg> 