<svg width="96" height="96" viewBox="0 0 16 16" xmlns="http://www.w3.org/2000/svg" shape-rendering="crispEdges">
  <!-- 16-bit style repeat icon -->
  
  <!-- Base circular shape using blocks -->
  <rect x="4" y="2" width="8" height="1" fill="#FFFFFF" />
  <rect x="3" y="3" width="10" height="1" fill="#FFFFFF" />
  <rect x="2" y="4" width="12" height="8" fill="#FFFFFF" />
  <rect x="3" y="12" width="10" height="1" fill="#FFFFFF" />
  <rect x="4" y="13" width="8" height="1" fill="#FFFFFF" />
  
  <!-- Circular arrow shape inside -->
  <rect x="5" y="5" width="6" height="1" fill="#0066CC" />
  <rect x="4" y="6" width="2" height="1" fill="#0066CC" />
  <rect x="10" y="6" width="2" height="1" fill="#0066CC" />
  <rect x="4" y="7" width="1" height="2" fill="#0066CC" />
  <rect x="11" y="7" width="1" height="2" fill="#0066CC" />
  <rect x="4" y="9" width="2" height="1" fill="#0066CC" />
  <rect x="10" y="9" width="2" height="1" fill="#0066CC" />
  <rect x="5" y="10" width="6" height="1" fill="#0066CC" />
  
  <!-- Arrow head indicating repeat direction -->
  <rect x="10" y="4" width="1" height="1" fill="#0066CC" />
  <rect x="11" y="5" width="1" height="1" fill="#0066CC" />
  <rect x="5" y="10" width="1" height="1" fill="#0066CC" />
  <rect x="4" y="11" width="1" height="1" fill="#0066CC" />
</svg> 