<svg width="320" height="30" viewBox="0 0 80 10" xmlns="http://www.w3.org/2000/svg" shape-rendering="crispEdges">
  <!-- Pixel art ship deck -->
  
  <!-- Base dark wood -->
  <rect x="0" y="0" width="80" height="10" fill="#663311" />
  
  <!-- Wood planks -->
  <rect x="0" y="0" width="8" height="10" fill="#884422" />
  <rect x="16" y="0" width="8" height="10" fill="#884422" />
  <rect x="32" y="0" width="8" height="10" fill="#884422" />
  <rect x="48" y="0" width="8" height="10" fill="#884422" />
  <rect x="64" y="0" width="8" height="10" fill="#884422" />
  
  <!-- Plank dividers -->
  <rect x="8" y="0" width="1" height="10" fill="#552211" />
  <rect x="15" y="0" width="1" height="10" fill="#552211" />
  <rect x="24" y="0" width="1" height="10" fill="#552211" />
  <rect x="31" y="0" width="1" height="10" fill="#552211" />
  <rect x="40" y="0" width="1" height="10" fill="#552211" />
  <rect x="47" y="0" width="1" height="10" fill="#552211" />
  <rect x="56" y="0" width="1" height="10" fill="#552211" />
  <rect x="63" y="0" width="1" height="10" fill="#552211" />
  <rect x="72" y="0" width="1" height="10" fill="#552211" />
  
  <!-- Wood nail/knot details -->
  <rect x="4" y="2" width="1" height="1" fill="#aa6633" />
  <rect x="4" y="7" width="1" height="1" fill="#aa6633" />
  <rect x="12" y="4" width="1" height="1" fill="#aa6633" />
  <rect x="20" y="2" width="1" height="1" fill="#aa6633" />
  <rect x="20" y="7" width="1" height="1" fill="#aa6633" />
  <rect x="28" y="5" width="1" height="1" fill="#aa6633" />
  <rect x="36" y="2" width="1" height="1" fill="#aa6633" />
  <rect x="36" y="7" width="1" height="1" fill="#aa6633" />
  <rect x="44" y="3" width="1" height="1" fill="#aa6633" />
  <rect x="52" y="2" width="1" height="1" fill="#aa6633" />
  <rect x="52" y="7" width="1" height="1" fill="#aa6633" />
  <rect x="60" y="4" width="1" height="1" fill="#aa6633" />
  <rect x="68" y="2" width="1" height="1" fill="#aa6633" />
  <rect x="68" y="7" width="1" height="1" fill="#aa6633" />
  <rect x="76" y="5" width="1" height="1" fill="#aa6633" />
  
  <!-- Top edge shadow -->
  <rect x="0" y="0" width="80" height="1" fill="#552211" />
</svg> 