<?xml version="1.0" encoding="UTF-8"?>
<svg width="24px" height="24px" viewBox="0 0 24 24" version="1.1" xmlns="http://www.w3.org/2000/svg">
    <g stroke="none" stroke-width="1" fill="none" fill-rule="evenodd">
        <path d="M3,9 L7,9 L12,4 L12,20 L7,15 L3,15 L3,9 Z" fill="#FFFFFF" />
        <path d="M16,7 C17.66,7 19,8.34 19,10 C19,11.66 17.66,13 16,13 L16,15 C18.76,15 21,12.76 21,10 C21,7.24 18.76,5 16,5 L16,7 Z" fill="#FFFFFF" />
        <path d="M16,3 L16,5 C19.87,5 23,8.13 23,12 C23,15.87 19.87,19 16,19 L16,21 C20.97,21 25,16.97 25,12 C25,7.03 20.97,3 16,3 Z" fill="#FFFFFF" />
    </g>
</svg> 