<?xml version="1.0" encoding="UTF-8"?>
<svg width="100" height="100" viewBox="0 0 100 100" xmlns="http://www.w3.org/2000/svg">
  <!-- 16-bit style representation of the color blue (azul) -->
  
  <!-- Main blue square/background -->
  <rect x="10" y="10" width="80" height="80" fill="#0066cc" stroke="#003399" stroke-width="2"/>
  
  <!-- Color variants in a pattern -->
  <rect x="20" y="20" width="20" height="20" fill="#0099ff" stroke="#0066cc" stroke-width="1"/>
  <rect x="60" y="20" width="20" height="20" fill="#003399" stroke="#0066cc" stroke-width="1"/>
  <rect x="20" y="60" width="20" height="20" fill="#003399" stroke="#0066cc" stroke-width="1"/>
  <rect x="60" y="60" width="20" height="20" fill="#0099ff" stroke="#0066cc" stroke-width="1"/>
  
  <!-- Highlight shimmer -->
  <polygon points="10,10 30,10 10,30" fill="#33ccff" opacity="0.5"/>
  <polygon points="90,90 70,90 90,70" fill="#33ccff" opacity="0.5"/>
  
  <!-- Pixel art style text "AZUL" -->
  <g fill="#ffffff">
    <!-- Letter A -->
    <rect x="20" y="40" width="2" height="10"/>
    <rect x="22" y="38" width="6" height="2"/>
    <rect x="28" y="40" width="2" height="10"/>
    <rect x="22" y="43" width="6" height="2"/>
    
    <!-- Letter Z -->
    <rect x="35" y="38" width="10" height="2"/>
    <rect x="43" y="40" width="2" height="2"/>
    <rect x="41" y="42" width="2" height="2"/>
    <rect x="39" y="44" width="2" height="2"/>
    <rect x="37" y="46" width="2" height="2"/>
    <rect x="35" y="48" width="10" height="2"/>
    
    <!-- Letter U -->
    <rect x="50" y="38" width="2" height="10"/>
    <rect x="52" y="48" width="6" height="2"/>
    <rect x="58" y="38" width="2" height="10"/>
    
    <!-- Letter L -->
    <rect x="65" y="38" width="2" height="10"/>
    <rect x="67" y="48" width="8" height="2"/>
  </g>
  
  <!-- Decorative blue waves at bottom -->
  <path d="M 10,85 Q 20,80 30,85 Q 40,90 50,85 Q 60,80 70,85 Q 80,90 90,85" stroke="#33ccff" stroke-width="2" fill="none"/>
  <path d="M 10,90 Q 20,85 30,90 Q 40,95 50,90 Q 60,85 70,90 Q 80,95 90,90" stroke="#0099ff" stroke-width="2" fill="none"/>
</svg> 