<?xml version="1.0" encoding="UTF-8"?>
<svg width="100" height="100" viewBox="0 0 100 100" xmlns="http://www.w3.org/2000/svg">
  <!-- 16-bit style house (casa) -->
  
  <!-- House base -->
  <rect x="20" y="45" width="60" height="40" fill="#cc9966" stroke="#996633" stroke-width="2"/>
  
  <!-- Roof -->
  <polygon points="10,45 50,15 90,45" fill="#cc3333" stroke="#990000" stroke-width="2"/>
  <rect x="45" y="10" width="10" height="10" fill="#990000"/> <!-- Chimney -->
  
  <!-- Windows -->
  <rect x="30" y="55" width="10" height="10" fill="#99ccff" stroke="#3366cc" stroke-width="2"/>
  <line x1="35" y1="55" x2="35" y2="65" stroke="#3366cc" stroke-width="1"/>
  <line x1="30" y1="60" x2="40" y2="60" stroke="#3366cc" stroke-width="1"/>
  
  <rect x="60" y="55" width="10" height="10" fill="#99ccff" stroke="#3366cc" stroke-width="2"/>
  <line x1="65" y1="55" x2="65" y2="65" stroke="#3366cc" stroke-width="1"/>
  <line x1="60" y1="60" x2="70" y2="60" stroke="#3366cc" stroke-width="1"/>
  
  <!-- Door -->
  <rect x="45" y="65" width="10" height="20" fill="#663300" stroke="#331100" stroke-width="1"/>
  <circle cx="48" cy="75" r="1" fill="#ffcc00"/> <!-- Doorknob -->
  
  <!-- Front porch steps -->
  <rect x="40" y="85" width="20" height="3" fill="#cccccc" stroke="#999999" stroke-width="1"/>
  <rect x="42" y="88" width="16" height="3" fill="#cccccc" stroke="#999999" stroke-width="1"/>
  
  <!-- Garden -->
  <rect x="15" y="88" width="20" height="5" fill="#009933"/>
  <rect x="65" y="88" width="20" height="5" fill="#009933"/>
  
  <!-- Pixelated flowers -->
  <circle cx="20" cy="86" r="2" fill="#ff6699"/>
  <circle cx="25" cy="87" r="2" fill="#ffcc00"/>
  <circle cx="75" cy="86" r="2" fill="#ff6699"/>
  <circle cx="80" cy="87" r="2" fill="#ffcc00"/>
  
  <!-- Clouds in sky -->
  <circle cx="20" cy="15" r="5" fill="#ffffff" opacity="0.8"/>
  <circle cx="15" cy="18" r="4" fill="#ffffff" opacity="0.8"/>
  <circle cx="25" cy="18" r="4" fill="#ffffff" opacity="0.8"/>
  
  <circle cx="75" cy="20" r="4" fill="#ffffff" opacity="0.8"/>
  <circle cx="70" cy="22" r="3" fill="#ffffff" opacity="0.8"/>
  <circle cx="80" cy="22" r="3" fill="#ffffff" opacity="0.8"/>
  
  <!-- Smoke from chimney -->
  <circle cx="50" cy="8" r="2" fill="#cccccc" opacity="0.6"/>
  <circle cx="52" cy="5" r="2" fill="#cccccc" opacity="0.5"/>
  <circle cx="54" cy="3" r="2" fill="#cccccc" opacity="0.4"/>
</svg> 