<?xml version="1.0" encoding="UTF-8"?>
<svg width="100" height="70" viewBox="0 0 100 70" xmlns="http://www.w3.org/2000/svg">
  <!-- 16-bit style chocolate bar -->
  
  <!-- Outer chocolate wrapper (partially open) -->
  <path d="M 5,15 L 15,5 L 95,5 L 85,15 Z" fill="#c83737" stroke="#8b0000" stroke-width="1"/>
  <path d="M 5,15 L 5,55 L 15,65 L 15,5 Z" fill="#c83737" stroke="#8b0000" stroke-width="1"/>
  <path d="M 85,15 L 85,55 L 95,65 L 95,5 Z" fill="#c83737" stroke="#8b0000" stroke-width="1"/>
  <path d="M 5,55 L 15,65 L 95,65 L 85,55 Z" fill="#c83737" stroke="#8b0000" stroke-width="1"/>
  
  <!-- Wrapper detail - gold foil pattern -->
  <path d="M 5,15 L 85,15 L 85,55 L 5,55 Z" fill="none" stroke="#d4af37" stroke-width="0.5" stroke-dasharray="2,2"/>
  <text x="35" y="35" fill="#d4af37" font-family="monospace" font-size="8" font-weight="bold">CHOCOLATE</text>
  
  <!-- Chocolate bar -->
  <rect x="20" y="20" width="60" height="40" fill="#603311" stroke="#3d220b" stroke-width="1.5"/>
  
  <!-- Chocolate segments -->
  <rect x="20" y="30" width="60" height="1" fill="#3d220b" stroke="#3d220b" stroke-width="0.5"/>
  <rect x="20" y="40" width="60" height="1" fill="#3d220b" stroke="#3d220b" stroke-width="0.5"/>
  <rect x="20" y="50" width="60" height="1" fill="#3d220b" stroke="#3d220b" stroke-width="0.5"/>
  
  <rect x="30" y="20" width="1" height="40" fill="#3d220b" stroke="#3d220b" stroke-width="0.5"/>
  <rect x="40" y="20" width="1" height="40" fill="#3d220b" stroke="#3d220b" stroke-width="0.5"/>
  <rect x="50" y="20" width="1" height="40" fill="#3d220b" stroke="#3d220b" stroke-width="0.5"/>
  <rect x="60" y="20" width="1" height="40" fill="#3d220b" stroke="#3d220b" stroke-width="0.5"/>
  <rect x="70" y="20" width="1" height="40" fill="#3d220b" stroke="#3d220b" stroke-width="0.5"/>
  
  <!-- Broken corner piece -->
  <path d="M 70,20 L 80,20 L 80,30 L 70,30 Z" fill="#7b441d" stroke="#3d220b" stroke-width="1"/>
  <path d="M 70,20 L 80,20 L 75,17 Z" fill="#7b441d" stroke="#3d220b" stroke-width="0.5"/>
  <path d="M 80,20 L 80,30 L 83,25 Z" fill="#7b441d" stroke="#3d220b" stroke-width="0.5"/>
  
  <!-- Chocolate highlights/details -->
  <path d="M 25,25 L 28,25" stroke="#7b441d" stroke-width="1.5"/>
  <path d="M 35,25 L 38,25" stroke="#7b441d" stroke-width="1.5"/>
  <path d="M 45,25 L 48,25" stroke="#7b441d" stroke-width="1.5"/>
  <path d="M 55,25 L 58,25" stroke="#7b441d" stroke-width="1.5"/>
  <path d="M 65,25 L 68,25" stroke="#7b441d" stroke-width="1.5"/>
  
  <path d="M 25,35 L 28,35" stroke="#7b441d" stroke-width="1.5"/>
  <path d="M 35,35 L 38,35" stroke="#7b441d" stroke-width="1.5"/>
  <path d="M 45,35 L 48,35" stroke="#7b441d" stroke-width="1.5"/>
  <path d="M 55,35 L 58,35" stroke="#7b441d" stroke-width="1.5"/>
  <path d="M 65,35 L 68,35" stroke="#7b441d" stroke-width="1.5"/>
  
  <path d="M 25,45 L 28,45" stroke="#7b441d" stroke-width="1.5"/>
  <path d="M 35,45 L 38,45" stroke="#7b441d" stroke-width="1.5"/>
  <path d="M 45,45 L 48,45" stroke="#7b441d" stroke-width="1.5"/>
  <path d="M 55,45 L 58,45" stroke="#7b441d" stroke-width="1.5"/>
  <path d="M 65,45 L 68,45" stroke="#7b441d" stroke-width="1.5"/>
  
  <path d="M 25,55 L 28,55" stroke="#7b441d" stroke-width="1.5"/>
  <path d="M 35,55 L 38,55" stroke="#7b441d" stroke-width="1.5"/>
  <path d="M 45,55 L 48,55" stroke="#7b441d" stroke-width="1.5"/>
  <path d="M 55,55 L 58,55" stroke="#7b441d" stroke-width="1.5"/>
  <path d="M 65,55 L 68,55" stroke="#7b441d" stroke-width="1.5"/>
  
  <!-- Shadow -->
  <ellipse cx="50" cy="68" rx="40" ry="2" fill="#000000" opacity="0.3"/>
</svg> 