<?xml version="1.0" encoding="UTF-8"?>
<svg width="160" height="100" viewBox="0 0 160 100" xmlns="http://www.w3.org/2000/svg">
  <!-- 16-bit style table (mesa) -->
  
  <!-- Table top -->
  <rect x="20" y="40" width="120" height="10" fill="#A1887F" stroke="#8D6E63" stroke-width="2"/>
  
  <!-- Table legs -->
  <rect x="30" y="50" width="8" height="30" fill="#8D6E63" stroke="#5D4037" stroke-width="1"/>
  <rect x="122" y="50" width="8" height="30" fill="#8D6E63" stroke="#5D4037" stroke-width="1"/>
  
  <!-- Table leg connectors -->
  <rect x="30" y="65" width="100" height="4" fill="#8D6E63" stroke="#5D4037" stroke-width="1"/>
  
  <!-- Table shadow -->
  <ellipse cx="80" cy="85" rx="60" ry="5" fill="#000000" opacity="0.2"/>
  
  <!-- Items on the table -->
  <!-- Plate -->
  <circle cx="55" cy="35" r="10" fill="#E0E0E0" stroke="#BDBDBD" stroke-width="1"/>
  <circle cx="55" cy="35" r="8" fill="#F5F5F5" stroke="#E0E0E0" stroke-width="0.5"/>
  
  <!-- Cup -->
  <path d="M95,25 L100,45 L110,45 L115,25 Z" fill="#FF9800" stroke="#F57C00" stroke-width="1"/>
  <rect x="95" y="25" width="20" height="3" fill="#F57C00" stroke="#E65100" stroke-width="0.5"/>
  <path d="M115,30 C120,32 120,38 115,40" fill="none" stroke="#E65100" stroke-width="1.5"/>
  
  <!-- Fruit/Apple -->
  <circle cx="80" cy="30" r="6" fill="#F44336" stroke="#D32F2F" stroke-width="1"/>
  <path d="M80,24 L80,22" stroke="#4CAF50" stroke-width="1"/>
  <path d="M83,25 Q84,23 85,24" fill="none" stroke="#4CAF50" stroke-width="0.5"/>
  
  <!-- Wood grain details on table top -->
  <line x1="30" y1="43" x2="130" y2="43" stroke="#8D6E63" stroke-width="0.5" stroke-dasharray="8,4"/>
  <line x1="30" y1="46" x2="130" y2="46" stroke="#8D6E63" stroke-width="0.5" stroke-dasharray="5,5"/>
  
  <!-- Pixel details -->
  <rect x="32" y="52" width="2" height="2" fill="#5D4037"/>
  <rect x="124" y="52" width="2" height="2" fill="#5D4037"/>
  <rect x="65" y="38" width="2" height="2" fill="#8D6E63"/>
  <rect x="95" y="38" width="2" height="2" fill="#8D6E63"/>
</svg> 