<?xml version="1.0" encoding="UTF-8"?>
<svg width="120" height="80" viewBox="0 0 120 80" xmlns="http://www.w3.org/2000/svg">
  <!-- 16-bit style snow scene -->
  
  <!-- Background gradient: sky to snow -->
  <defs>
    <linearGradient id="skyGradient" x1="0%" y1="0%" x2="0%" y2="70%">
      <stop offset="0%" style="stop-color:#a0c8f0;stop-opacity:1" />
      <stop offset="70%" style="stop-color:#e8f4ff;stop-opacity:1" />
    </linearGradient>
  </defs>
  
  <!-- Sky background -->
  <rect width="120" height="80" fill="url(#skyGradient)" />
  
  <!-- Snow hills in background -->
  <path d="M 0,50 Q 20,40 40,45 Q 60,35 80,42 Q 100,38 120,48 L 120,80 L 0,80 Z" 
        fill="#ffffff" stroke="#e0e8f0" stroke-width="1" />
  
  <!-- Snow drifts - middle ground -->
  <path d="M 0,60 Q 15,55 30,58 Q 50,52 70,59 Q 95,53 120,58 L 120,80 L 0,80 Z" 
        fill="#f0f8ff" stroke="#e0e8f0" stroke-width="0.5" />
  
  <!-- Snow ground - foreground -->
  <path d="M 0,68 Q 25,62 50,65 Q 75,61 95,64 Q 110,62 120,65 L 120,80 L 0,80 Z" 
        fill="#ffffff" stroke="#e0e8f0" stroke-width="0.5" />
  
  <!-- Pixel pattern on ground to simulate snow texture -->
  <g fill="#e0e8f0">
    <!-- Row 1 -->
    <rect x="8" y="70" width="2" height="2" />
    <rect x="23" y="69" width="2" height="2" />
    <rect x="42" y="72" width="2" height="2" />
    <rect x="56" y="68" width="2" height="2" />
    <rect x="78" y="70" width="2" height="2" />
    <rect x="95" y="71" width="2" height="2" />
    <rect x="111" y="68" width="2" height="2" />
    
    <!-- Row 2 -->
    <rect x="15" y="74" width="2" height="2" />
    <rect x="32" y="76" width="2" height="2" />
    <rect x="53" y="75" width="2" height="2" />
    <rect x="72" y="77" width="2" height="2" />
    <rect x="87" y="76" width="2" height="2" />
    <rect x="105" y="75" width="2" height="2" />
  </g>
  
  <!-- Large snowflakes -->
  <g fill="#ffffff" stroke="#e0e8f0" stroke-width="0.5">
    <!-- Snowflake 1 -->
    <circle cx="25" cy="20" r="3" />
    <path d="M 25,15 L 25,25 M 20,20 L 30,20 M 22,17 L 28,23 M 22,23 L 28,17" 
          stroke="#ffffff" stroke-width="1.5" />
    
    <!-- Snowflake 2 -->
    <circle cx="80" cy="30" r="3" />
    <path d="M 80,25 L 80,35 M 75,30 L 85,30 M 77,27 L 83,33 M 77,33 L 83,27" 
          stroke="#ffffff" stroke-width="1.5" />
    
    <!-- Snowflake 3 -->
    <circle cx="50" cy="25" r="2.5" />
    <path d="M 50,21 L 50,29 M 46,25 L 54,25 M 47,22 L 53,28 M 47,28 L 53,22" 
          stroke="#ffffff" stroke-width="1.2" />
    
    <!-- Snowflake 4 -->
    <circle cx="105" cy="20" r="3" />
    <path d="M 105,15 L 105,25 M 100,20 L 110,20 M 102,17 L 108,23 M 102,23 L 108,17" 
          stroke="#ffffff" stroke-width="1.5" />
  </g>
  
  <!-- Small snowflakes -->
  <g fill="#ffffff">
    <circle cx="15" cy="15" r="1.2" />
    <circle cx="35" cy="12" r="1" />
    <circle cx="65" cy="18" r="1.2" />
    <circle cx="90" cy="15" r="1" />
    <circle cx="110" cy="25" r="1.2" />
    <circle cx="20" cy="30" r="1" />
    <circle cx="40" cy="35" r="1.2" />
    <circle cx="70" cy="10" r="1" />
    <circle cx="95" cy="35" r="1.2" />
    <circle cx="10" cy="40" r="1" />
    <circle cx="30" cy="45" r="1.2" />
    <circle cx="50" cy="40" r="1" />
    <circle cx="75" cy="45" r="1.2" />
    <circle cx="100" cy="40" r="1" />
    <circle cx="115" cy="45" r="1.2" />
  </g>
  
  <!-- Sparkles representing ice/light reflection -->
  <g fill="#ffffff">
    <path d="M 20,50 L 22,52 L 20,54 L 18,52 Z" />
    <path d="M 40,58 L 42,60 L 40,62 L 38,60 Z" />
    <path d="M 60,54 L 62,56 L 60,58 L 58,56 Z" />
    <path d="M 80,56 L 82,58 L 80,60 L 78,58 Z" />
    <path d="M 100,52 L 102,54 L 100,56 L 98,54 Z" />
  </g>
</svg> 