<?xml version="1.0" encoding="UTF-8"?>
<svg width="100" height="100" viewBox="0 0 100 100" xmlns="http://www.w3.org/2000/svg">
  <!-- 16-bit style representation of the color red (rojo) -->
  
  <!-- Main red square/background -->
  <rect x="10" y="10" width="80" height="80" fill="#cc0000" stroke="#990000" stroke-width="2"/>
  
  <!-- Color variants in a pattern -->
  <rect x="20" y="20" width="20" height="20" fill="#ff3333" stroke="#cc0000" stroke-width="1"/>
  <rect x="60" y="20" width="20" height="20" fill="#990000" stroke="#cc0000" stroke-width="1"/>
  <rect x="20" y="60" width="20" height="20" fill="#990000" stroke="#cc0000" stroke-width="1"/>
  <rect x="60" y="60" width="20" height="20" fill="#ff3333" stroke="#cc0000" stroke-width="1"/>
  
  <!-- Highlight shimmer -->
  <polygon points="10,10 30,10 10,30" fill="#ff6666" opacity="0.5"/>
  <polygon points="90,90 70,90 90,70" fill="#ff6666" opacity="0.5"/>
  
  <!-- Pixel art style text "ROJO" -->
  <g fill="#ffffff">
    <!-- Letter R -->
    <rect x="25" y="38" width="2" height="12"/>
    <rect x="27" y="38" width="6" height="2"/>
    <rect x="33" y="40" width="2" height="2"/>
    <rect x="27" y="43" width="6" height="2"/>
    <rect x="33" y="45" width="2" height="2"/>
    <rect x="35" y="47" width="2" height="3"/>
    
    <!-- Letter O -->
    <rect x="40" y="38" width="10" height="2"/>
    <rect x="40" y="40" width="2" height="8"/>
    <rect x="48" y="40" width="2" height="8"/>
    <rect x="40" y="48" width="10" height="2"/>
    
    <!-- Letter J -->
    <rect x="55" y="38" width="8" height="2"/>
    <rect x="59" y="40" width="2" height="7"/>
    <rect x="55" y="47" width="4" height="2"/>
    <rect x="55" y="40" width="2" height="7"/>
    
    <!-- Letter O -->
    <rect x="65" y="38" width="10" height="2"/>
    <rect x="65" y="40" width="2" height="8"/>
    <rect x="73" y="40" width="2" height="8"/>
    <rect x="65" y="48" width="10" height="2"/>
  </g>
  
  <!-- Decorative red flame patterns at bottom -->
  <path d="M 20,85 Q 25,75 30,85 Q 35,75 40,85" stroke="#ff6666" stroke-width="3" fill="none"/>
  <path d="M 50,85 Q 55,75 60,85 Q 65,75 70,85" stroke="#ff6666" stroke-width="3" fill="none"/>
  <path d="M 30,90 Q 35,80 40,90 Q 45,80 50,90 Q 55,80 60,90" stroke="#ff3333" stroke-width="2" fill="none"/>
</svg> 