<?xml version="1.0" encoding="UTF-8"?>
<svg width="100" height="120" viewBox="0 0 100 120" xmlns="http://www.w3.org/2000/svg">
  <!-- 16-bit style chair (silla) -->
  
  <!-- Chair seat -->
  <rect x="25" y="60" width="50" height="10" fill="#A1887F" stroke="#8D6E63" stroke-width="2"/>
  
  <!-- Chair back -->
  <rect x="25" y="20" width="50" height="8" fill="#A1887F" stroke="#8D6E63" stroke-width="2"/>
  <rect x="25" y="28" width="8" height="32" fill="#A1887F" stroke="#8D6E63" stroke-width="2"/>
  <rect x="67" y="28" width="8" height="32" fill="#A1887F" stroke="#8D6E63" stroke-width="2"/>
  
  <!-- Chair back slats -->
  <rect x="33" y="25" width="4" height="35" fill="#8D6E63" stroke="#5D4037" stroke-width="1"/>
  <rect x="48" y="25" width="4" height="35" fill="#8D6E63" stroke="#5D4037" stroke-width="1"/>
  <rect x="63" y="25" width="4" height="35" fill="#8D6E63" stroke="#5D4037" stroke-width="1"/>
  
  <!-- Chair legs -->
  <rect x="28" y="70" width="5" height="30" fill="#8D6E63" stroke="#5D4037" stroke-width="1"/>
  <rect x="67" y="70" width="5" height="30" fill="#8D6E63" stroke="#5D4037" stroke-width="1"/>
  
  <!-- Chair front legs -->
  <rect x="28" y="70" width="5" height="32" fill="#8D6E63" stroke="#5D4037" stroke-width="1"/>
  <rect x="67" y="70" width="5" height="32" fill="#8D6E63" stroke="#5D4037" stroke-width="1"/>
  
  <!-- Chair leg connectors -->
  <rect x="28" y="85" width="44" height="3" fill="#8D6E63" stroke="#5D4037" stroke-width="0.5"/>
  
  <!-- Chair shadow -->
  <ellipse cx="50" cy="105" rx="30" ry="5" fill="#000000" opacity="0.2"/>
  
  <!-- Wood grain details -->
  <line x1="30" y1="64" x2="70" y2="64" stroke="#8D6E63" stroke-width="0.5" stroke-dasharray="5,3"/>
  <line x1="30" y1="23" x2="70" y2="23" stroke="#8D6E63" stroke-width="0.5" stroke-dasharray="5,3"/>
  
  <!-- Pixel details -->
  <rect x="29" y="72" width="2" height="2" fill="#5D4037"/>
  <rect x="68" y="72" width="2" height="2" fill="#5D4037"/>
  <rect x="29" y="30" width="2" height="2" fill="#5D4037"/>
  <rect x="68" y="30" width="2" height="2" fill="#5D4037"/>
</svg> 