<svg width="100" height="70" viewBox="0 0 100 70" xmlns="http://www.w3.org/2000/svg">
  <!-- Background -->
  <rect width="100" height="70" fill="#f7f7ff" rx="4" />
  
  <!-- Shadow beneath coal pile -->
  <ellipse cx="50" cy="55" rx="40" ry="7" fill="#e0e0e0" />
  
  <!-- Coal pile base -->
  <path d="M30 40 L70 40 L65 55 L35 55 Z" fill="#1a1a1a" />
  
  <!-- Coal chunks -->
  <path d="M25 35 L40 30 L45 40 L30 40 Z" fill="#212121" />
  <path d="M40 30 L60 32 L65 40 L45 40 Z" fill="#1a1a1a" />
  <path d="M60 32 L75 35 L70 40 L65 40 Z" fill="#212121" />
  
  <!-- More coal chunks -->
  <path d="M35 25 L50 20 L60 32 L40 30 Z" fill="#282828" />
  <path d="M50 20 L65 25 L75 35 L60 32 Z" fill="#1a1a1a" />
  
  <!-- Top coal chunks -->
  <path d="M45 15 L55 15 L65 25 L50 20 Z" fill="#212121" />
  
  <!-- Coal highlights and details -->
  <path d="M45 15 L48 18 L53 18 L55 15" fill="#333333" />
  <path d="M35 25 L38 28 L48 28 L50 20" fill="#333333" />
  <path d="M25 35 L28 38 L38 38 L40 30" fill="#333333" />
  
  <!-- Coal sparkles/shine -->
  <circle cx="47" cy="17" r="1" fill="#5c5c5c" />
  <circle cx="53" cy="22" r="1" fill="#5c5c5c" />
  <circle cx="40" cy="27" r="1" fill="#5c5c5c" />
  <circle cx="60" cy="28" r="1" fill="#5c5c5c" />
  <circle cx="30" cy="35" r="1" fill="#5c5c5c" />
  <circle cx="50" cy="35" r="1" fill="#5c5c5c" />
  <circle cx="70" cy="38" r="1" fill="#5c5c5c" />
  <circle cx="45" cy="50" r="1" fill="#5c5c5c" />
  <circle cx="55" cy="47" r="1" fill="#5c5c5c" />
  
  <!-- Pixel details -->
  <rect x="42" y="25" width="3" height="3" fill="#000000" />
  <rect x="57" y="33" width="3" height="3" fill="#000000" />
  <rect x="35" y="43" width="3" height="3" fill="#000000" />
  <rect x="62" y="42" width="3" height="3" fill="#000000" />
  <rect x="48" y="44" width="3" height="3" fill="#000000" />
  
  <!-- Small coal dust/debris -->
  <rect x="30" y="50" width="2" height="2" fill="#333333" />
  <rect x="75" y="42" width="2" height="2" fill="#333333" />
  <rect x="25" y="45" width="2" height="2" fill="#333333" />
  <rect x="70" y="48" width="2" height="2" fill="#333333" />
</svg> 