<?xml version="1.0" encoding="UTF-8"?>
<svg width="96" height="96" viewBox="0 0 16 16" xmlns="http://www.w3.org/2000/svg" shape-rendering="crispEdges">
  <!-- 16-bit style movie projector -->
  
  <!-- Projector body -->
  <rect x="2" y="4" width="8" height="5" fill="#9E9E9E" />
  <rect x="10" y="5" width="2" height="3" fill="#757575" />
  
  <!-- Projector lens -->
  <rect x="12" y="5" width="2" height="3" fill="#424242" />
  <rect x="14" y="6" width="1" height="1" fill="#424242" />
  
  <!-- Film reels -->
  <rect x="1" y="3" width="3" height="1" fill="#616161" />
  <rect x="1" y="9" width="3" height="1" fill="#616161" />
  
  <!-- Screen area -->
  <rect x="4" y="1" width="8" height="2" fill="#E0E0E0" />
  <rect x="5" y="3" width="6" height="1" fill="#BDBDBD" />
  
  <!-- Projector light beam -->
  <rect x="10" y="1" width="1" height="3" fill="#FFECB3" opacity="0.7" />
  <rect x="11" y="1" width="1" height="3" fill="#FFECB3" opacity="0.5" />
  
  <!-- Projector controls -->
  <rect x="3" y="5" width="1" height="1" fill="#42A5F5" />
  <rect x="5" y="5" width="1" height="1" fill="#EF5350" />
  <rect x="7" y="5" width="1" height="1" fill="#66BB6A" />
  
  <!-- Film strips -->
  <rect x="3" y="10" width="10" height="1" fill="#424242" />
  <rect x="3" y="12" width="10" height="1" fill="#424242" />
  <rect x="3" y="14" width="10" height="1" fill="#424242" />
  
  <!-- Film holes -->
  <rect x="4" y="10" width="1" height="1" fill="#212121" />
  <rect x="6" y="10" width="1" height="1" fill="#212121" />
  <rect x="8" y="10" width="1" height="1" fill="#212121" />
  <rect x="10" y="10" width="1" height="1" fill="#212121" />
  <rect x="4" y="12" width="1" height="1" fill="#212121" />
  <rect x="6" y="12" width="1" height="1" fill="#212121" />
  <rect x="8" y="12" width="1" height="1" fill="#212121" />
  <rect x="10" y="12" width="1" height="1" fill="#212121" />
  <rect x="4" y="14" width="1" height="1" fill="#212121" />
  <rect x="6" y="14" width="1" height="1" fill="#212121" />
  <rect x="8" y="14" width="1" height="1" fill="#212121" />
  <rect x="10" y="14" width="1" height="1" fill="#212121" />
</svg> 