<svg 
  xmlns="http://www.w3.org/2000/svg" 
  width="80" 
  height="120" 
  viewBox="0 0 16 24"
  shape-rendering="crispEdges">

  <!-- Bench - placed lower to show full boy figure -->
  <rect x="2" y="17" width="12" height="1" fill="#8B4513"/>
  <rect x="3" y="18" width="1" height="3" fill="#8B4513"/>
  <rect x="12" y="18" width="1" height="3" fill="#8B4513"/>
  <rect x="2" y="21" width="12" height="1" fill="#8B4513"/>
  
  <!-- Boy's Head -->
  <rect x="6" y="5" width="4" height="4" fill="#F5CBA7"/>
  
  <!-- Boy's Hair -->
  <rect x="6" y="4" width="4" height="1" fill="#4A235A"/>
  <rect x="5" y="5" width="1" height="1" fill="#4A235A"/>
  <rect x="10" y="5" width="1" height="1" fill="#4A235A"/>
  
  <!-- Boy's Face -->
  <rect x="7" y="6" width="1" height="1" fill="#333333"/> <!-- Left eye -->
  <rect x="8" y="6" width="1" height="1" fill="#333333"/> <!-- Right eye -->
  <rect x="7" y="7" width="2" height="1" fill="#AA6E6E"/> <!-- Mouth -->
  
  <!-- Boy's Body/Shirt -->
  <rect x="6" y="9" width="4" height="4" fill="#E74C3C"/>
  <rect x="5" y="10" width="1" height="3" fill="#E74C3C"/> <!-- Left arm -->
  <rect x="10" y="10" width="1" height="3" fill="#E74C3C"/> <!-- Right arm -->
  
  <!-- Boy's Hands -->
  <rect x="4" y="12" width="1" height="1" fill="#F5CBA7"/> <!-- Left hand -->
  <rect x="11" y="12" width="1" height="1" fill="#F5CBA7"/> <!-- Right hand -->
  
  <!-- Boy's Pants -->
  <rect x="6" y="13" width="4" height="2" fill="#5DADE2"/>
  
  <!-- Boy's Legs -->
  <rect x="6" y="15" width="1" height="2" fill="#F5CBA7"/> <!-- Left leg -->
  <rect x="9" y="15" width="1" height="2" fill="#F5CBA7"/> <!-- Right leg -->
  
  <!-- Boy's Shoes -->
  <rect x="5" y="17" width="2" height="1" fill="#333333"/> <!-- Left shoe -->
  <rect x="9" y="17" width="2" height="1" fill="#333333"/> <!-- Right shoe -->
  
  <!-- Simplified Tree 1 -->
  <rect x="2" y="10" width="2" height="2" fill="#27AE60"/>
  <rect x="2" y="12" width="1" height="5" fill="#8B4513"/>
  
  <!-- Simplified Tree 2 -->
  <rect x="12" y="9" width="2" height="3" fill="#27AE60"/>
  <rect x="12" y="12" width="1" height="5" fill="#8B4513"/>
</svg> 