<svg width="80" height="120" viewBox="0 0 16 24" xmlns="http://www.w3.org/2000/svg" shape-rendering="crispEdges">
  <!-- 16-bit style boy (niño) following sprite guidelines -->
  
  <!-- Boy's Head -->
  <rect x="6" y="3" width="4" height="4" fill="#FFCC80"/>
  
  <!-- Boy's Hair -->
  <rect x="5" y="2" width="6" height="2" fill="#4E342E"/>
  <rect x="5" y="4" width="1" height="1" fill="#4E342E"/>
  <rect x="10" y="4" width="1" height="1" fill="#4E342E"/>
  
  <!-- Boy's Face -->
  <rect x="7" y="4" width="1" height="1" fill="#5D4037"/> <!-- Left eye -->
  <rect x="8" y="4" width="1" height="1" fill="#5D4037"/> <!-- Right eye -->
  <rect x="7" y="6" width="2" height="1" fill="#8D6E63"/> <!-- Mouth -->
  
  <!-- Boy's Shirt -->
  <rect x="5" y="7" width="6" height="4" fill="#2196F3"/> <!-- Blue shirt -->
  <rect x="4" y="8" width="1" height="3" fill="#2196F3"/> <!-- Left arm -->
  <rect x="11" y="8" width="1" height="3" fill="#2196F3"/> <!-- Right arm -->
  
  <!-- Boy's Hands -->
  <rect x="3" y="11" width="2" height="2" fill="#FFCC80"/> <!-- Left hand -->
  <rect x="11" y="11" width="2" height="2" fill="#FFCC80"/> <!-- Right hand -->
  
  <!-- Boy's Pants -->
  <rect x="5" y="11" width="6" height="3" fill="#1565C0"/> <!-- Blue pants -->
  
  <!-- Boy's Legs -->
  <rect x="5" y="14" width="2" height="6" fill="#FFCC80"/> <!-- Left leg -->
  <rect x="9" y="14" width="2" height="6" fill="#FFCC80"/> <!-- Right leg -->
  
  <!-- Boy's Shoes -->
  <rect x="4" y="20" width="3" height="2" fill="#424242"/> <!-- Left shoe -->
  <rect x="9" y="20" width="3" height="2" fill="#424242"/> <!-- Right shoe -->
</svg> 