<?xml version="1.0" encoding="UTF-8"?>
<svg width="120" height="90" viewBox="0 0 120 90" xmlns="http://www.w3.org/2000/svg">
  <!-- Background - transparent -->
  <rect width="120" height="90" fill="none"/>
  
  <!-- Main sprite group - centered -->
  <g transform="translate(20, 10)">
    <!-- Brown dog - noisy, pixel art style -->
    <g transform="translate(0, 15)">
      <!-- Body - pixelated -->
      <rect x="0" y="10" width="30" height="20" fill="#8D6E63"/>
      <rect x="30" y="14" width="6" height="16" fill="#8D6E63"/>
      <rect x="-4" y="14" width="4" height="12" fill="#8D6E63"/>
      
      <!-- Legs - pixel blocks -->
      <rect x="4" y="30" width="6" height="10" fill="#6D4C41"/>
      <rect x="20" y="30" width="6" height="10" fill="#6D4C41"/>
      
      <!-- Head - pixelated -->
      <rect x="30" y="4" width="16" height="14" fill="#8D6E63"/>
      <rect x="46" y="8" width="4" height="10" fill="#8D6E63"/>
      <rect x="36" y="0" width="8" height="4" fill="#8D6E63"/>
      
      <!-- Ears - pixel triangles -->
      <rect x="32" y="-6" width="4" height="6" fill="#6D4C41"/>
      <rect x="44" y="-4" width="4" height="4" fill="#6D4C41"/>
      
      <!-- Mouth - open barking -->
      <rect x="46" y="12" width="10" height="8" fill="#5D4037"/>
      <rect x="48" y="14" width="6" height="4" fill="#D7CCC8"/>
      
      <!-- Eyes - pixel dots -->
      <rect x="36" y="6" width="3" height="3" fill="#000000"/>
      <rect x="43" y="6" width="3" height="3" fill="#000000"/>
      
      <!-- Tail - wagging -->
      <rect x="-10" y="10" width="6" height="4" fill="#8D6E63"/>
      <rect x="-14" y="14" width="4" height="4" fill="#8D6E63"/>
      <rect x="-18" y="18" width="4" height="4" fill="#8D6E63"/>
      
      <!-- Collar -->
      <rect x="30" y="16" width="8" height="2" fill="#F44336"/>
    </g>
    
    <!-- Black dog - noisy, pixel art style -->
    <g transform="translate(40, 30)">
      <!-- Body - pixelated -->
      <rect x="0" y="5" width="26" height="16" fill="#424242"/>
      <rect x="26" y="9" width="6" height="12" fill="#424242"/>
      <rect x="-4" y="9" width="4" height="8" fill="#424242"/>
      
      <!-- Spots - pixel blocks -->
      <rect x="4" y="9" width="8" height="6" fill="#FFFFFF"/>
      <rect x="18" y="12" width="6" height="6" fill="#FFFFFF"/>
      
      <!-- Legs - pixel blocks -->
      <rect x="4" y="21" width="4" height="8" fill="#424242"/>
      <rect x="18" y="21" width="4" height="8" fill="#424242"/>
      
      <!-- Head - pixelated -->
      <rect x="26" y="0" width="14" height="12" fill="#424242"/>
      <rect x="40" y="4" width="4" height="8" fill="#424242"/>
      <rect x="32" y="-4" width="6" height="4" fill="#424242"/>
      
      <!-- White patch on head -->
      <rect x="26" y="4" width="6" height="4" fill="#FFFFFF"/>
      
      <!-- Ears - pixel triangles -->
      <rect x="28" y="-8" width="4" height="4" fill="#424242"/>
      <rect x="38" y="-6" width="4" height="2" fill="#424242"/>
      
      <!-- Mouth - open barking -->
      <rect x="40" y="8" width="8" height="6" fill="#000000"/>
      <rect x="42" y="10" width="4" height="2" fill="#FF8A65"/>
      
      <!-- Eyes - wild looking -->
      <rect x="30" y="2" width="4" height="2" fill="#FFFFFF"/>
      <rect x="37" y="2" width="4" height="2" fill="#FFFFFF"/>
      <rect x="31" y="2" width="2" height="2" fill="#FF0000"/>
      <rect x="38" y="2" width="2" height="2" fill="#FF0000"/>
      
      <!-- Tail - wagging frantically -->
      <rect x="-10" y="5" width="6" height="4" fill="#424242"/>
      <rect x="-16" y="1" width="6" height="4" fill="#424242"/>
      <rect x="-18" y="5" width="2" height="6" fill="#424242"/>
      
      <!-- Collar -->
      <rect x="26" y="10" width="6" height="2" fill="#2196F3"/>
    </g>
  </g>
  
  <!-- Sound effect elements - pixel style -->
  <g>
    <!-- Sound waves from brown dog -->
    <rect x="76" y="26" width="2" height="2" fill="#000000"/>
    <rect x="80" y="24" width="2" height="2" fill="#000000"/>
    <rect x="84" y="26" width="2" height="2" fill="#000000"/>
    <rect x="88" y="24" width="2" height="2" fill="#000000"/>
    <rect x="92" y="26" width="2" height="2" fill="#000000"/>
    
    <!-- Sound waves from black dog -->
    <rect x="90" y="44" width="2" height="2" fill="#000000"/>
    <rect x="94" y="42" width="2" height="2" fill="#000000"/>
    <rect x="98" y="44" width="2" height="2" fill="#000000"/>
    <rect x="102" y="42" width="2" height="2" fill="#000000"/>
    
    <!-- Action lines -->
    <rect x="18" y="68" width="4" height="2" fill="#000000"/>
    <rect x="24" y="65" width="4" height="2" fill="#000000"/>
    <rect x="86" y="73" width="4" height="2" fill="#000000"/>
    <rect x="92" y="70" width="4" height="2" fill="#000000"/>
    
    <!-- More action elements -->
    <rect x="40" y="15" width="2" height="2" fill="#000000"/>
    <rect x="44" y="12" width="2" height="2" fill="#000000"/>
    <rect x="48" y="15" width="2" height="2" fill="#000000"/>
    <rect x="60" y="32" width="2" height="2" fill="#000000"/>
    <rect x="56" y="35" width="2" height="2" fill="#000000"/>
    <rect x="52" y="32" width="2" height="2" fill="#000000"/>
  </g>
</svg> 