<?xml version="1.0" encoding="UTF-8"?>
<svg width="150" height="90" viewBox="0 0 150 90" xmlns="http://www.w3.org/2000/svg">
  <!-- 16-bit style fast race car -->
  
  <!-- Car Body -->
  <rect x="30" y="45" width="100" height="20" rx="5" fill="#ff0000"/>
  
  <!-- Car Top/Cabin -->
  <rect x="60" y="25" width="40" height="20" rx="5" fill="#ff0000"/>
  
  <!-- Windshield -->
  <rect x="65" y="30" width="30" height="10" rx="2" fill="#87ceeb"/>
  
  <!-- Wheels -->
  <circle cx="45" cy="65" r="12" fill="#111111" stroke="#333333" stroke-width="2"/>
  <circle cx="115" cy="65" r="12" fill="#111111" stroke="#333333" stroke-width="2"/>
  
  <!-- Wheel Details -->
  <circle cx="45" cy="65" r="5" fill="#555555"/>
  <circle cx="115" cy="65" r="5" fill="#555555"/>
  
  <!-- Bumpers -->
  <rect x="25" y="50" width="5" height="10" rx="2" fill="#999999"/>
  <rect x="130" y="50" width="5" height="10" rx="2" fill="#999999"/>
  
  <!-- Headlights -->
  <rect x="130" y="40" width="8" height="5" rx="2" fill="#ffff00"/>
  <rect x="130" y="55" width="8" height="5" rx="2" fill="#ff0000"/>
  
  <!-- Taillights -->
  <rect x="25" y="40" width="5" height="5" rx="2" fill="#ff0000"/>
  <rect x="25" y="55" width="5" height="5" rx="2" fill="#ff0000"/>
  
  <!-- Spoiler -->
  <rect x="25" y="20" width="25" height="5" rx="1" fill="#ff0000"/>
  <rect x="25" y="20" width="3" height="25" rx="1" fill="#ff0000"/>
  
  <!-- Racing Stripes -->
  <rect x="40" y="30" width="80" height="5" fill="#ffffff"/>
  <rect x="40" y="65" width="80" height="5" fill="#ffffff"/>
  
  <!-- Speed Lines -->
  <line x1="15" y1="40" x2="5" y2="40" stroke="#cccccc" stroke-width="2"/>
  <line x1="18" y1="50" x2="3" y2="50" stroke="#cccccc" stroke-width="2"/>
  <line x1="20" y1="60" x2="8" y2="60" stroke="#cccccc" stroke-width="2"/>
  
  <line x1="12" y1="35" x2="2" y2="35" stroke="#cccccc" stroke-width="1"/>
  <line x1="15" y1="45" x2="0" y2="45" stroke="#cccccc" stroke-width="1"/>
  <line x1="17" y1="55" x2="5" y2="55" stroke="#cccccc" stroke-width="1"/>
  <line x1="14" y1="65" x2="2" y2="65" stroke="#cccccc" stroke-width="1"/>
</svg> 