<?xml version="1.0" encoding="UTF-8"?>
<svg width="120" height="100" viewBox="0 0 120 100" xmlns="http://www.w3.org/2000/svg">
  <!-- 16-bit style house (casa) with transparent background -->
  <rect width="120" height="100" fill="none"/>
  
  <!-- Main house structure - pixel art style -->
  <g transform="translate(25, 15)">
    <!-- Roof - pixelated -->
    <rect x="0" y="20" width="70" height="5" fill="#8B4513"/>
    <rect x="5" y="15" width="60" height="5" fill="#8B4513"/>
    <rect x="10" y="10" width="50" height="5" fill="#8B4513"/>
    <rect x="15" y="5" width="40" height="5" fill="#8B4513"/>
    <rect x="20" y="0" width="30" height="5" fill="#8B4513"/>
    
    <!-- House walls - pixelated -->
    <rect x="10" y="25" width="50" height="40" fill="#F4A460"/>
    
    <!-- Door - pixelated -->
    <rect x="28" y="45" width="14" height="20" fill="#8B4513"/>
    <rect x="30" y="45" width="10" height="20" fill="#A0522D"/>
    <rect x="32" y="55" width="2" height="2" fill="#DAA520"/> <!-- Doorknob -->
    
    <!-- Windows - pixelated -->
    <rect x="15" y="35" width="10" height="10" fill="#ADD8E6"/>
    <rect x="45" y="35" width="10" height="10" fill="#ADD8E6"/>
    
    <!-- Window frames - pixelated -->
    <rect x="15" y="39" width="10" height="2" fill="#4682B4"/>
    <rect x="19" y="35" width="2" height="10" fill="#4682B4"/>
    <rect x="45" y="39" width="10" height="2" fill="#4682B4"/>
    <rect x="49" y="35" width="2" height="10" fill="#4682B4"/>
    
    <!-- Chimney - pixelated -->
    <rect x="50" y="0" width="8" height="15" fill="#A52A2A"/>
    
    <!-- Smoke pixels -->
    <rect x="51" y="-3" width="2" height="2" fill="#D3D3D3"/>
    <rect x="53" y="-5" width="2" height="2" fill="#D3D3D3"/>
    <rect x="50" y="-7" width="2" height="2" fill="#D3D3D3"/>
    <rect x="54" y="-9" width="2" height="2" fill="#D3D3D3"/>
  </g>
  
  <!-- Pixel art details -->
  <g transform="translate(25, 15)">
    <!-- Shadow under house -->
    <rect x="8" y="65" width="54" height="3" fill="#A0522D"/>
    
    <!-- House front highlights -->
    <rect x="12" y="27" width="2" height="36" fill="#DEB887"/>
    <rect x="56" y="27" width="2" height="36" fill="#CD853F"/>
    
    <!-- Roof highlights -->
    <rect x="2" y="20" width="2" height="5" fill="#A0522D"/>
    <rect x="66" y="20" width="2" height="5" fill="#A0522D"/>
    <rect x="22" y="0" width="2" height="5" fill="#A0522D"/>
    <rect x="46" y="0" width="2" height="5" fill="#A0522D"/>
    
    <!-- Window shine -->
    <rect x="16" y="36" width="2" height="2" fill="#FFFFFF"/>
    <rect x="46" y="36" width="2" height="2" fill="#FFFFFF"/>
  </g>
  
  <!-- Pixel shading for 16-bit look -->
  <g>
    <rect x="41" y="56" width="2" height="2" fill="#8B4513"/>
    <rect x="77" y="56" width="2" height="2" fill="#8B4513"/>
    <rect x="45" y="30" width="2" height="2" fill="#8B4513"/>
    <rect x="49" y="27" width="2" height="2" fill="#8B4513"/>
    <rect x="35" y="16" width="2" height="2" fill="#A0522D"/>
    <rect x="67" y="33" width="2" height="2" fill="#CD853F"/>
    <rect x="82" y="28" width="2" height="2" fill="#A52A2A"/>
  </g>
</svg> 