<?xml version="1.0" encoding="UTF-8"?>
<svg width="100" height="50" viewBox="0 0 100 50" xmlns="http://www.w3.org/2000/svg">
  <!-- 16-bit style blue pen (pluma azul) -->
  
  <!-- Pen body -->
  <rect x="15" y="20" width="60" height="10" rx="5" ry="5" fill="#1565C0" stroke="#0D47A1" stroke-width="1"/>
  
  <!-- Pen body details: light blue stripes -->
  <rect x="25" y="20" width="2" height="10" fill="#42A5F5"/>
  <rect x="40" y="20" width="2" height="10" fill="#42A5F5"/>
  <rect x="55" y="20" width="2" height="10" fill="#42A5F5"/>
  
  <!-- Pen cap -->
  <rect x="5" y="17" width="25" height="16" rx="8" ry="8" fill="#0D47A1" stroke="#0D47A1" stroke-width="1"/>
  
  <!-- Cap details -->
  <rect x="10" y="17" width="2" height="16" fill="#42A5F5"/>
  <rect x="18" y="17" width="2" height="16" fill="#42A5F5"/>
  <circle cx="15" cy="25" r="6" fill="#0D47A1" stroke="#1565C0" stroke-width="1"/>
  <circle cx="15" cy="25" r="3" fill="#1565C0" stroke="#64B5F6" stroke-width="0.5"/>
  
  <!-- Pen tip/nib -->
  <path d="M 75,20 L 85,15 L 85,35 L 75,30 Z" fill="#424242" stroke="#212121" stroke-width="1"/>
  <path d="M 85,15 L 95,20 L 95,30 L 85,35 Z" fill="#212121" stroke="#000000" stroke-width="1"/>
  
  <!-- Tip details -->
  <line x1="85" y1="17" x2="93" y2="22" stroke="#424242" stroke-width="0.5"/>
  <line x1="85" y1="33" x2="93" y2="28" stroke="#424242" stroke-width="0.5"/>
  
  <!-- Ink drop -->
  <path d="M 95,25 C 96,23 98,25 97,27 C 96,29 94,27 95,25 Z" fill="#1565C0" stroke="#0D47A1" stroke-width="0.5"/>
  
  <!-- Shine/highlight on pen -->
  <line x1="20" y1="21" x2="60" y2="21" stroke="#90CAF9" stroke-width="1" stroke-dasharray="5,3"/>
  
  <!-- Clip on cap -->
  <rect x="13" y="12" width="4" height="10" rx="1" ry="1" fill="#1565C0" stroke="#0D47A1" stroke-width="0.5"/>
  <rect x="13" y="12" width="4" height="2" rx="1" ry="1" fill="#1976D2" stroke="#0D47A1" stroke-width="0.5"/>
  
  <!-- Small shadow under pen -->
  <ellipse cx="50" cy="42" rx="40" ry="3" fill="#000000" opacity="0.2"/>
</svg> 