<?xml version="1.0" encoding="UTF-8"?>
<svg width="96" height="96" viewBox="0 0 16 16" xmlns="http://www.w3.org/2000/svg" shape-rendering="crispEdges">
  <!-- 16-bit style new shoes (zapatos nuevos) -->
  
  <!-- First shoe (left) -->
  <!-- Shoe body -->
  <rect x="1" y="6" width="5" height="3" fill="#5D4037" />
  <rect x="2" y="5" width="3" height="1" fill="#5D4037" />
  
  <!-- Shoe sole -->
  <rect x="1" y="9" width="5" height="1" fill="#3E2723" />
  
  <!-- Shoe laces -->
  <rect x="2" y="6" width="1" height="1" fill="#F5F5F5" />
  <rect x="4" y="6" width="1" height="1" fill="#F5F5F5" />
  <rect x="3" y="7" width="1" height="1" fill="#F5F5F5" />
  
  <!-- "NEW" tag (made with blocks) -->
  <rect x="2" y="3" width="3" height="1" fill="#F44336" />
  <rect x="3" y="4" width="1" height="1" fill="#F44336" />
  
  <!-- Second shoe (right) -->
  <!-- Shoe body -->
  <rect x="10" y="6" width="5" height="3" fill="#5D4037" />
  <rect x="11" y="5" width="3" height="1" fill="#5D4037" />
  
  <!-- Shoe sole -->
  <rect x="10" y="9" width="5" height="1" fill="#3E2723" />
  
  <!-- Shoe laces -->
  <rect x="11" y="6" width="1" height="1" fill="#F5F5F5" />
  <rect x="13" y="6" width="1" height="1" fill="#F5F5F5" />
  <rect x="12" y="7" width="1" height="1" fill="#F5F5F5" />
  
  <!-- "NEW" tag (made with blocks) - matching the first shoe -->
  <rect x="11" y="3" width="3" height="1" fill="#F44336" />
  <rect x="12" y="4" width="1" height="1" fill="#F44336" />
</svg> 