<?xml version="1.0" encoding="UTF-8"?>
<svg width="96" height="96" viewBox="0 0 16 16" xmlns="http://www.w3.org/2000/svg" shape-rendering="crispEdges">
  <!-- 16-bit style smart girl (niña inteligente) -->
  
  <!-- Head -->
  <rect x="6" y="2" width="4" height="4" fill="#FFCC99" />
  
  <!-- Hair -->
  <rect x="5" y="2" width="1" height="4" fill="#4E2E0F" />
  <rect x="10" y="2" width="1" height="4" fill="#4E2E0F" />
  <rect x="6" y="1" width="4" height="1" fill="#4E2E0F" />
  
  <!-- Glasses -->
  <rect x="6" y="3" width="1" height="1" fill="#000000" />
  <rect x="9" y="3" width="1" height="1" fill="#000000" />
  <rect x="7" y="3" width="2" height="1" fill="#000000" opacity="0.5" />
  
  <!-- Mouth -->
  <rect x="7" y="5" width="2" height="1" fill="#CC6666" />
  
  <!-- Dress -->
  <rect x="6" y="6" width="4" height="5" fill="#FF3399" />
  <rect x="5" y="7" width="1" height="3" fill="#FF3399" />
  <rect x="10" y="7" width="1" height="3" fill="#FF3399" />
  
  <!-- Arms -->
  <rect x="4" y="7" width="1" height="2" fill="#FFCC99" />
  <rect x="11" y="7" width="1" height="2" fill="#FFCC99" />
  
  <!-- Book -->
  <rect x="5" y="9" width="6" height="2" fill="#0066CC" />
  <rect x="8" y="9" width="1" height="2" fill="#003366" />
  
  <!-- Legs -->
  <rect x="6" y="11" width="1" height="3" fill="#FFCC99" />
  <rect x="9" y="11" width="1" height="3" fill="#FFCC99" />
  
  <!-- Shoes -->
  <rect x="5" y="14" width="2" height="1" fill="#FF3399" />
  <rect x="9" y="14" width="2" height="1" fill="#FF3399" />
  
  <!-- Lightbulb (idea symbol) -->
  <rect x="11" y="1" width="2" height="2" fill="#FFCC00" />
  <rect x="12" y="3" width="1" height="1" fill="#FFCC00" />
</svg> 