<?xml version="1.0" encoding="UTF-8"?>
<svg width="80" height="120" viewBox="0 0 80 120" xmlns="http://www.w3.org/2000/svg">
  <!-- 16-bit style smart girl (niña inteligente) in Monkey Island style -->
  
  <!-- Dark background like Monkey Island -->
  <rect width="80" height="120" fill="#0D3B66"/>
  
  <!-- Stars (pixelated, single-pixel) -->
  <g fill="#FFFFFF">
    <rect x="10" y="10" width="1" height="1"/>
    <rect x="20" y="5" width="1" height="1"/>
    <rect x="30" y="15" width="1" height="1"/>
    <rect x="50" y="8" width="1" height="1"/>
    <rect x="65" y="18" width="1" height="1"/>
    <rect x="70" y="30" width="1" height="1"/>
    <rect x="15" y="25" width="1" height="1"/>
    <rect x="40" y="20" width="1" height="1"/>
  </g>
  
  <!-- Girl figure - pixelated Monkey Island style -->
  <g transform="translate(40, 70)">
    <!-- Head (square with minimal rounding) -->
    <rect x="-10" y="-35" width="20" height="20" rx="3" fill="#FFCC99"/>
    
    <!-- Hair (blocky/pixelated) -->
    <rect x="-12" y="-35" width="24" height="8" fill="#4E2E0F"/>
    <rect x="-12" y="-27" width="3" height="12" fill="#4E2E0F"/>
    <rect x="9" y="-27" width="3" height="12" fill="#4E2E0F"/>
    <rect x="-12" y="-35" width="3" height="20" fill="#4E2E0F"/>
    <rect x="9" y="-35" width="3" height="20" fill="#4E2E0F"/>
    
    <!-- Glasses - blocky rectangle frames -->
    <rect x="-8" y="-28" width="6" height="5" rx="0" fill="none" stroke="#000000" stroke-width="1"/>
    <rect x="2" y="-28" width="6" height="5" rx="0" fill="none" stroke="#000000" stroke-width="1"/>
    <rect x="-2" y="-26" width="4" height="1" fill="#000000"/>
    
    <!-- Eyes (square pixels) -->
    <rect x="-7" y="-27" width="4" height="3" fill="#000000"/>
    <rect x="3" y="-27" width="4" height="3" fill="#000000"/>
    
    <!-- Mouth (pixelated) -->
    <rect x="-4" y="-20" width="8" height="2" fill="#000000"/>
    
    <!-- Body - Dress (more angular) -->
    <polygon points="-10,-15 -18,15 18,15 10,-15" fill="#FF3399"/>
    <rect x="-18" y="15" width="36" height="3" fill="#FF3399"/>
    
    <!-- Book in hands (pixelated) -->
    <rect x="-10" y="-2" width="20" height="12" fill="#0066CC"/>
    <rect x="-8" y="0" width="16" height="8" fill="#99CCFF"/>
    <rect x="-1" y="0" width="2" height="8" fill="#0066CC"/>
    
    <!-- Text in book (pixelated) -->
    <rect x="-6" y="2" width="3" height="1" fill="#000066"/>
    <rect x="-6" y="4" width="3" height="1" fill="#000066"/>
    <rect x="-6" y="6" width="3" height="1" fill="#000066"/>
    <rect x="3" y="2" width="3" height="1" fill="#000066"/>
    <rect x="3" y="4" width="3" height="1" fill="#000066"/>
    <rect x="3" y="6" width="3" height="1" fill="#000066"/>
    
    <!-- Arms (pixelated rectangles) -->
    <rect x="-15" y="-10" width="5" height="18" fill="#FFCC99"/>
    <rect x="10" y="-10" width="5" height="18" fill="#FFCC99"/>
    
    <!-- Legs (pixelated rectangles) -->
    <rect x="-8" y="18" width="6" height="15" fill="#FFCC99"/>
    <rect x="2" y="18" width="6" height="15" fill="#FFCC99"/>
    
    <!-- Shoes (blocky, pixelated) -->
    <rect x="-10" y="33" width="8" height="4" fill="#FF3399"/>
    <rect x="2" y="33" width="8" height="4" fill="#FF3399"/>
  </g>
  
  <!-- Thought bubble - pixelated Monkey Island style -->
  <g transform="translate(55, 25)">
    <!-- Main bubble (square with minimal rounding) -->
    <rect x="-10" y="-10" width="20" height="20" rx="2" fill="#000000"/>
    <rect x="-8" y="-8" width="16" height="16" rx="1" fill="#FFFFFF"/>
    
    <!-- Small bubbles (square) -->
    <rect x="-14" y="5" width="4" height="4" fill="#000000"/>
    <rect x="-13" y="6" width="2" height="2" fill="#FFFFFF"/>
    
    <rect x="-18" y="8" width="3" height="3" fill="#000000"/>
    <rect x="-17" y="9" width="1" height="1" fill="#FFFFFF"/>
    
    <!-- Math symbols in thought bubble (pixelated) -->
    <!-- 1+1=2 pixelated -->
    <g fill="#000000">
      <rect x="-5" y="-5" width="1" height="5"/>
      <rect x="-6" y="0" width="3" height="1"/>
      
      <rect x="-1" y="-3" width="3" height="1"/>
      <rect x="-1" y="-1" width="3" height="1"/>
      
      <rect x="4" y="-5" width="3" height="1"/>
      <rect x="4" y="-3" width="3" height="1"/>
      <rect x="4" y="-1" width="3" height="1"/>
      <rect x="6" y="-4" width="1" height="3"/>
    </g>
    
    <!-- E=mc² pixelated -->
    <g fill="#000000">
      <rect x="-5" y="3" width="3" height="1"/>
      <rect x="-5" y="5" width="3" height="1"/>
      <rect x="-5" y="7" width="3" height="1"/>
      <rect x="-5" y="3" width="1" height="5"/>
      
      <rect x="0" y="5" width="3" height="1"/>
      
      <rect x="5" y="3" width="1" height="5"/>
      <rect x="5" y="3" width="2" height="1"/>
      <rect x="5" y="5" width="2" height="1"/>
      <rect x="5" y="7" width="2" height="1"/>
    </g>
  </g>
  
  <!-- Small book stack (pixelated) -->
  <g transform="translate(15, 100)">
    <rect x="0" y="0" width="12" height="4" fill="#CC0000"/>
    <rect x="-2" y="4" width="14" height="3" fill="#9900CC"/>
    <rect x="-1" y="7" width="13" height="3" fill="#009999"/>
  </g>
  
  <!-- Lightbulb - Symbol of idea/intelligence (pixelated) -->
  <g transform="translate(65, 40)">
    <rect x="-1" y="5" width="2" height="4" fill="#FFCC00"/>
    <rect x="-4" y="-4" width="8" height="8" fill="#FFCC00"/>
    <rect x="-3" y="-5" width="6" height="1" fill="#FFCC00"/>
    <rect x="-2" y="-6" width="4" height="1" fill="#FFCC00"/>
    
    <!-- Highlight (pixelated) -->
    <rect x="1" y="-3" width="2" height="2" fill="#FFFFFF"/>
  </g>
</svg> 