<?xml version="1.0" encoding="UTF-8"?>
<svg width="140" height="140" viewBox="0 0 140 140" xmlns="http://www.w3.org/2000/svg">
  <!-- 16-bit style tall boys (chicos altos) in Monkey Island style - no background, pure retro sprites -->
  
  <!-- Transparent background -->
  <rect width="140" height="140" fill="none"/>
  
  <!-- First tall boy (left) -->
  <g transform="translate(35, 130)">
    <!-- Shoes (pixelated) -->
    <rect x="-8" y="0" width="16" height="6" fill="#271708" stroke="#000000" stroke-width="1"/>
    
    <!-- Legs (pixelated/blocky) -->
    <rect x="-6" y="-20" width="5" height="20" fill="#513C2C"/>
    <rect x="1" y="-20" width="5" height="20" fill="#513C2C"/>
    
    <!-- Belt -->
    <rect x="-6" y="-22" width="12" height="2" fill="#65350F"/>
    
    <!-- Torso (super tall, retro style with pixelated edges) -->
    <rect x="-8" y="-65" width="16" height="43" fill="#227AFF"/>
    <rect x="-8" y="-65" width="16" height="5" fill="#235DA5"/> <!-- darker top part -->
    
    <!-- Arms (pixelated) -->
    <rect x="-12" y="-60" width="4" height="25" fill="#227AFF"/>
    <rect x="8" y="-60" width="4" height="25" fill="#227AFF"/>
    
    <!-- Hands (pixelated) -->
    <rect x="-14" y="-35" width="6" height="6" rx="1" fill="#FFCC99"/>
    <rect x="8" y="-35" width="6" height="6" rx="1" fill="#FFCC99"/>
    
    <!-- Neck (extremely tall, pixelated) -->
    <rect x="-3" y="-75" width="6" height="10" fill="#FFCC99"/>
    
    <!-- Head (blockier, less rounded) -->
    <rect x="-8" y="-90" width="16" height="15" rx="2" fill="#FFCC99" stroke="#000000" stroke-width="1"/>
    
    <!-- Hair (pixelated) -->
    <rect x="-8" y="-95" width="16" height="5" fill="#513C2C"/>
    <rect x="-10" y="-95" width="2" height="8" fill="#513C2C"/>
    <rect x="8" y="-95" width="2" height="8" fill="#513C2C"/>
    
    <!-- Face (simple pixel-art style) -->
    <rect x="-6" y="-87" width="3" height="3" fill="#000000"/> <!-- Left eye -->
    <rect x="3" y="-87" width="3" height="3" fill="#000000"/> <!-- Right eye -->
    <rect x="-3" y="-80" width="6" height="2" fill="#000000"/> <!-- Simple mouth -->
  </g>
  
  <!-- Second tall boy (middle) -->
  <g transform="translate(70, 130)">
    <!-- Shoes (pixelated) -->
    <rect x="-8" y="0" width="16" height="6" fill="#271708" stroke="#000000" stroke-width="1"/>
    
    <!-- Legs (pixelated/blocky) -->
    <rect x="-6" y="-20" width="5" height="20" fill="#271B54"/>
    <rect x="1" y="-20" width="5" height="20" fill="#271B54"/>
    
    <!-- Belt -->
    <rect x="-6" y="-22" width="12" height="2" fill="#65350F"/>
    
    <!-- Torso (super tall, retro style with pixelated edges) -->
    <rect x="-8" y="-75" width="16" height="53" fill="#FF6C1A"/>
    <rect x="-8" y="-75" width="16" height="5" fill="#BF510F"/> <!-- darker top part -->
    
    <!-- Arms (pixelated) -->
    <rect x="-12" y="-70" width="4" height="30" fill="#FF6C1A"/>
    <rect x="8" y="-70" width="4" height="30" fill="#FF6C1A"/>
    
    <!-- Hands (pixelated) -->
    <rect x="-14" y="-40" width="6" height="6" rx="1" fill="#FFCC99"/>
    <rect x="8" y="-40" width="6" height="6" rx="1" fill="#FFCC99"/>
    
    <!-- Neck (extremely tall, pixelated) -->
    <rect x="-3" y="-87" width="6" height="12" fill="#FFCC99"/>
    
    <!-- Head (blockier, less rounded) -->
    <rect x="-8" y="-102" width="16" height="15" rx="2" fill="#FFCC99" stroke="#000000" stroke-width="1"/>
    
    <!-- Hair (pixelated) -->
    <path d="M-8,-102 L-8,-107 L0,-112 L8,-107 L8,-102 Z" fill="#281C16"/>
    
    <!-- Face (simple pixel-art style) -->
    <rect x="-6" y="-99" width="3" height="3" fill="#000000"/> <!-- Left eye -->
    <rect x="3" y="-99" width="3" height="3" fill="#000000"/> <!-- Right eye -->
    <rect x="-3" y="-92" width="6" height="2" fill="#000000"/> <!-- Simple mouth -->
  </g>
  
  <!-- Third tall boy (right) -->
  <g transform="translate(105, 130)">
    <!-- Shoes (pixelated) -->
    <rect x="-8" y="0" width="16" height="6" fill="#271708" stroke="#000000" stroke-width="1"/>
    
    <!-- Legs (pixelated/blocky) -->
    <rect x="-6" y="-20" width="5" height="20" fill="#33521B"/>
    <rect x="1" y="-20" width="5" height="20" fill="#33521B"/>
    
    <!-- Belt -->
    <rect x="-6" y="-22" width="12" height="2" fill="#65350F"/>
    
    <!-- Torso (super tall, retro style with pixelated edges) -->
    <rect x="-8" y="-55" width="16" height="33" fill="#8B48C2"/>
    <rect x="-8" y="-55" width="16" height="5" fill="#67358F"/> <!-- darker top part -->
    
    <!-- Arms (pixelated) -->
    <rect x="-12" y="-50" width="4" height="20" fill="#8B48C2"/>
    <rect x="8" y="-50" width="4" height="20" fill="#8B48C2"/>
    
    <!-- Hands (pixelated) -->
    <rect x="-14" y="-30" width="6" height="6" rx="1" fill="#FFCC99"/>
    <rect x="8" y="-30" width="6" height="6" rx="1" fill="#FFCC99"/>
    
    <!-- Neck (extremely tall, pixelated) -->
    <rect x="-3" y="-65" width="6" height="10" fill="#FFCC99"/>
    
    <!-- Head (blockier, less rounded) -->
    <rect x="-8" y="-80" width="16" height="15" rx="2" fill="#FFCC99" stroke="#000000" stroke-width="1"/>
    
    <!-- Hair (pixelated) - flat top style -->
    <rect x="-9" y="-85" width="18" height="5" fill="#FFDA44"/>
    <rect x="-7" y="-87" width="14" height="2" fill="#FFDA44"/>
    
    <!-- Face (simple pixel-art style) -->
    <rect x="-6" y="-77" width="3" height="3" fill="#000000"/> <!-- Left eye -->
    <rect x="3" y="-77" width="3" height="3" fill="#000000"/> <!-- Right eye -->
    <rect x="-3" y="-70" width="6" height="2" fill="#000000"/> <!-- Simple mouth -->
  </g>
  
  <!-- Height measurement lines (minimalist, pixelated) -->
  <line x1="15" y1="110" x2="15" y2="20" stroke="#FFFFFF" stroke-width="2" stroke-dasharray="4,4"/>
  <line x1="12" y1="110" x2="18" y2="110" stroke="#FFFFFF" stroke-width="2"/>
  <line x1="12" y1="20" x2="18" y2="20" stroke="#FFFFFF" stroke-width="2"/>
  
  <!-- Height arrow -->
  <polygon points="15,15 10,25 20,25" fill="#FFFFFF"/>
</svg> 