<?xml version="1.0" encoding="UTF-8"?>
<svg width="96" height="96" viewBox="0 0 16 16" xmlns="http://www.w3.org/2000/svg" shape-rendering="crispEdges">
  <!-- 16-bit style white houses -->
  
  <!-- First house (large) -->
  <!-- House base -->
  <rect x="2" y="6" width="4" height="4" fill="#FFFFFF" />
  
  <!-- House roof -->
  <rect x="1" y="5" width="1" height="1" fill="#E0E0E0" />
  <rect x="2" y="4" width="1" height="1" fill="#E0E0E0" />
  <rect x="3" y="3" width="2" height="1" fill="#E0E0E0" />
  <rect x="5" y="4" width="1" height="1" fill="#E0E0E0" />
  <rect x="6" y="5" width="1" height="1" fill="#E0E0E0" />
  
  <!-- Door -->
  <rect x="3" y="8" width="2" height="2" fill="#9E9E9E" />
  
  <!-- Windows -->
  <rect x="2" y="7" width="1" height="1" fill="#E3F2FD" />
  <rect x="5" y="7" width="1" height="1" fill="#E3F2FD" />
  
  <!-- Second house (middle) -->
  <!-- House base -->
  <rect x="8" y="5" width="4" height="5" fill="#FFFFFF" />
  
  <!-- House roof -->
  <rect x="7" y="4" width="1" height="1" fill="#E0E0E0" />
  <rect x="8" y="3" width="1" height="1" fill="#E0E0E0" />
  <rect x="9" y="2" width="2" height="1" fill="#E0E0E0" />
  <rect x="11" y="3" width="1" height="1" fill="#E0E0E0" />
  <rect x="12" y="4" width="1" height="1" fill="#E0E0E0" />
  
  <!-- Door -->
  <rect x="9" y="8" width="2" height="2" fill="#9E9E9E" />
  
  <!-- Windows -->
  <rect x="8" y="6" width="1" height="1" fill="#E3F2FD" />
  <rect x="11" y="6" width="1" height="1" fill="#E3F2FD" />
  <rect x="8" y="8" width="1" height="1" fill="#E3F2FD" />
  <rect x="11" y="8" width="1" height="1" fill="#E3F2FD" />
  
  <!-- Third house (small) -->
  <!-- House base -->
  <rect x="13" y="7" width="2" height="3" fill="#FFFFFF" />
  
  <!-- House roof -->
  <rect x="12" y="6" width="1" height="1" fill="#E0E0E0" />
  <rect x="13" y="5" width="2" height="1" fill="#E0E0E0" />
  <rect x="15" y="6" width="1" height="1" fill="#E0E0E0" />
  
  <!-- Door -->
  <rect x="14" y="8" width="1" height="2" fill="#9E9E9E" />
  
  <!-- Window -->
  <rect x="13" y="8" width="1" height="1" fill="#E3F2FD" />
</svg> 