<?xml version="1.0" encoding="UTF-8"?>
<svg width="160" height="100" viewBox="0 0 160 100" xmlns="http://www.w3.org/2000/svg">
  <!-- 16-bit style white houses (casas blancas) -->
  
  <!-- Sky background -->
  <rect width="160" height="100" fill="#B3E5FC"/>
  
  <!-- Ground -->
  <rect x="0" y="80" width="160" height="20" fill="#8BC34A"/>
  
  <!-- First white house -->
  <g transform="translate(20, 50)">
    <!-- House base structure -->
    <rect x="0" y="0" width="35" height="30" fill="#FFFFFF" stroke="#BDBDBD" stroke-width="1"/>
    
    <!-- Roof -->
    <path d="M -5,0 L 17.5,-15 L 40,0 Z" fill="#E0E0E0" stroke="#9E9E9E" stroke-width="1"/>
    
    <!-- Door -->
    <rect x="13" y="15" width="10" height="15" fill="#9E9E9E" stroke="#757575" stroke-width="0.5"/>
    <circle cx="20" cy="22" r="1" fill="#616161"/>
    
    <!-- Windows -->
    <rect x="3" y="7" width="8" height="8" fill="#E3F2FD" stroke="#90CAF9" stroke-width="0.5"/>
    <rect x="25" y="7" width="8" height="8" fill="#E3F2FD" stroke="#90CAF9" stroke-width="0.5"/>
    
    <!-- Window frames -->
    <line x1="7" y1="7" x2="7" y2="15" stroke="#90CAF9" stroke-width="0.5"/>
    <line x1="3" y1="11" x2="11" y2="11" stroke="#90CAF9" stroke-width="0.5"/>
    <line x1="29" y1="7" x2="29" y2="15" stroke="#90CAF9" stroke-width="0.5"/>
    <line x1="25" y1="11" x2="33" y2="11" stroke="#90CAF9" stroke-width="0.5"/>
  </g>
  
  <!-- Second white house -->
  <g transform="translate(80, 40)">
    <!-- House base structure -->
    <rect x="0" y="0" width="40" height="40" fill="#FFFFFF" stroke="#BDBDBD" stroke-width="1"/>
    
    <!-- Roof -->
    <path d="M -5,0 L 20,-20 L 45,0 Z" fill="#E0E0E0" stroke="#9E9E9E" stroke-width="1"/>
    
    <!-- Door -->
    <rect x="15" y="25" width="10" height="15" fill="#9E9E9E" stroke="#757575" stroke-width="0.5"/>
    <circle cx="22" cy="32" r="1" fill="#616161"/>
    
    <!-- Windows -->
    <rect x="5" y="10" width="10" height="10" fill="#E3F2FD" stroke="#90CAF9" stroke-width="0.5"/>
    <rect x="25" y="10" width="10" height="10" fill="#E3F2FD" stroke="#90CAF9" stroke-width="0.5"/>
    <rect x="5" y="25" width="7" height="7" fill="#E3F2FD" stroke="#90CAF9" stroke-width="0.5"/>
    <rect x="28" y="25" width="7" height="7" fill="#E3F2FD" stroke="#90CAF9" stroke-width="0.5"/>
    
    <!-- Window frames -->
    <line x1="10" y1="10" x2="10" y2="20" stroke="#90CAF9" stroke-width="0.5"/>
    <line x1="5" y1="15" x2="15" y2="15" stroke="#90CAF9" stroke-width="0.5"/>
    <line x1="30" y1="10" x2="30" y2="20" stroke="#90CAF9" stroke-width="0.5"/>
    <line x1="25" y1="15" x2="35" y2="15" stroke="#90CAF9" stroke-width="0.5"/>
    <line x1="8.5" y1="25" x2="8.5" y2="32" stroke="#90CAF9" stroke-width="0.5"/>
    <line x1="5" y1="28.5" x2="12" y2="28.5" stroke="#90CAF9" stroke-width="0.5"/>
    <line x1="31.5" y1="25" x2="31.5" y2="32" stroke="#90CAF9" stroke-width="0.5"/>
    <line x1="28" y1="28.5" x2="35" y2="28.5" stroke="#90CAF9" stroke-width="0.5"/>
  </g>
  
  <!-- Third white house (smaller) -->
  <g transform="translate(130, 55)">
    <!-- House base structure -->
    <rect x="0" y="0" width="25" height="25" fill="#FFFFFF" stroke="#BDBDBD" stroke-width="1"/>
    
    <!-- Roof -->
    <path d="M -3,0 L 12.5,-10 L 28,0 Z" fill="#E0E0E0" stroke="#9E9E9E" stroke-width="1"/>
    
    <!-- Door -->
    <rect x="8" y="15" width="8" height="10" fill="#9E9E9E" stroke="#757575" stroke-width="0.5"/>
    <circle cx="14" cy="20" r="0.8" fill="#616161"/>
    
    <!-- Window -->
    <rect x="3" y="5" width="6" height="6" fill="#E3F2FD" stroke="#90CAF9" stroke-width="0.5"/>
    <rect x="16" y="5" width="6" height="6" fill="#E3F2FD" stroke="#90CAF9" stroke-width="0.5"/>
  </g>
  
  <!-- Sun -->
  <circle cx="20" cy="20" r="8" fill="#FFEB3B" stroke="#FFC107" stroke-width="1"/>
  <circle cx="20" cy="20" r="12" fill="#FFEB3B" opacity="0.1"/>
  
  <!-- Clouds -->
  <g opacity="0.6">
    <ellipse cx="60" cy="25" rx="10" ry="5" fill="#FFFFFF"/>
    <ellipse cx="65" cy="22" rx="7" ry="4" fill="#FFFFFF"/>
    <ellipse cx="55" cy="23" rx="8" ry="4" fill="#FFFFFF"/>
  </g>
  
  <!-- Decorative elements -->
  <!-- Flowers -->
  <g transform="translate(42, 85)">
    <circle cx="0" cy="0" r="2" fill="#E91E63"/>
    <circle cx="2" cy="-2" r="2" fill="#E91E63"/>
    <circle cx="-2" cy="-2" r="2" fill="#E91E63"/>
    <circle cx="0" cy="-4" r="2" fill="#E91E63"/>
    <circle cx="0" cy="-2" r="1.5" fill="#FFC107"/>
    <rect x="-0.5" y="0" width="1" height="5" fill="#4CAF50"/>
  </g>
  
  <g transform="translate(95, 85)">
    <circle cx="0" cy="0" r="2" fill="#9C27B0"/>
    <circle cx="2" cy="-2" r="2" fill="#9C27B0"/>
    <circle cx="-2" cy="-2" r="2" fill="#9C27B0"/>
    <circle cx="0" cy="-4" r="2" fill="#9C27B0"/>
    <circle cx="0" cy="-2" r="1.5" fill="#FFC107"/>
    <rect x="-0.5" y="0" width="1" height="5" fill="#4CAF50"/>
  </g>
  
  <g transform="translate(145, 87)">
    <circle cx="0" cy="0" r="1.5" fill="#2196F3"/>
    <circle cx="1.5" cy="-1.5" r="1.5" fill="#2196F3"/>
    <circle cx="-1.5" cy="-1.5" r="1.5" fill="#2196F3"/>
    <circle cx="0" cy="-3" r="1.5" fill="#2196F3"/>
    <circle cx="0" cy="-1.5" r="1" fill="#FFC107"/>
    <rect x="-0.4" y="0" width="0.8" height="4" fill="#4CAF50"/>
  </g>
</svg> 