<?xml version="1.0" encoding="UTF-8"?>
<svg width="96" height="96" viewBox="0 0 16 16" xmlns="http://www.w3.org/2000/svg" shape-rendering="crispEdges">
  <!-- 16-bit style yellow sun -->
  
  <!-- Sun body (yellow circle created with blocks) -->
  <rect x="5" y="2" width="6" height="1" fill="#FFEB3B" />
  <rect x="4" y="3" width="8" height="1" fill="#FFEB3B" />
  <rect x="3" y="4" width="10" height="1" fill="#FFEB3B" />
  <rect x="2" y="5" width="12" height="1" fill="#FFEB3B" />
  <rect x="2" y="6" width="12" height="4" fill="#FFEB3B" />
  <rect x="2" y="10" width="12" height="1" fill="#FFEB3B" />
  <rect x="3" y="11" width="10" height="1" fill="#FFEB3B" />
  <rect x="4" y="12" width="8" height="1" fill="#FFEB3B" />
  <rect x="5" y="13" width="6" height="1" fill="#FFEB3B" />
  
  <!-- Sun rays (created with blocks) -->
  <rect x="7" y="0" width="2" height="2" fill="#FFEB3B" />
  <rect x="0" y="7" width="2" height="2" fill="#FFEB3B" />
  <rect x="14" y="7" width="2" height="2" fill="#FFEB3B" />
  <rect x="7" y="14" width="2" height="2" fill="#FFEB3B" />
  <rect x="2" y="2" width="2" height="2" fill="#FFEB3B" />
  <rect x="12" y="2" width="2" height="2" fill="#FFEB3B" />
  <rect x="2" y="12" width="2" height="2" fill="#FFEB3B" />
  <rect x="12" y="12" width="2" height="2" fill="#FFEB3B" />
  
  <!-- Sun face (eyes) -->
  <rect x="5" y="7" width="2" height="2" fill="#F57F17" />
  <rect x="9" y="7" width="2" height="2" fill="#F57F17" />
  
  <!-- Sun face (mouth) -->
  <rect x="5" y="9" width="1" height="1" fill="#F57F17" />
  <rect x="6" y="10" width="4" height="1" fill="#F57F17" />
  <rect x="10" y="9" width="1" height="1" fill="#F57F17" />
  
  <!-- Eye highlights -->
  <rect x="5" y="7" width="1" height="1" fill="#FFFFFF" />
  <rect x="9" y="7" width="1" height="1" fill="#FFFFFF" />
</svg> 